<svg xmlns="http://www.w3.org/2000/svg" width="33" height="33" viewBox="0 0 33 33" fill="none">
  <path d="M7.3867 33H0.545089V10.9676H7.3867V33ZM3.96221 7.96216C1.77449 7.96216 0 6.15007 0 3.9623C1.56588e-08 2.91143 0.417446 1.90361 1.1605 1.16053C1.90356 0.417455 2.91137 0 3.96221 0C5.01305 0 6.02086 0.417455 6.76392 1.16053C7.50697 1.90361 7.92442 2.91143 7.92442 3.9623C7.92442 6.15007 6.1492 7.96216 3.96221 7.96216ZM32.9926 33H26.1658V22.2748C26.1658 19.7187 26.1142 16.4407 22.6087 16.4407C19.0516 16.4407 18.5065 19.2178 18.5065 22.0906V33H11.6723V10.9676H18.234V13.973H18.3297C19.2431 12.2419 21.4743 10.4151 24.803 10.4151C31.7271 10.4151 33 14.9748 33 20.8973V33H32.9926Z" fill="white"/>
</svg>