<svg xmlns="http://www.w3.org/2000/svg" width="47" height="47" viewBox="0 0 47 47" fill="none">
  <path d="M23.8571 0.151611C36.5241 0.151611 46.7871 10.4146 46.7871 23.0816C46.7871 35.7486 36.5241 46.0117 23.8571 46.0117C11.1901 46.0117 0.927063 35.7486 0.927063 23.0816C0.927063 10.4146 11.1901 0.151611 23.8571 0.151611ZM13.1318 27.1499H23.8571V33.7053C23.8571 34.6946 25.0591 35.1939 25.7525 34.4912L36.3207 23.8675C36.7552 23.433 36.7552 22.7395 36.3207 22.305L25.7525 11.6721C25.0498 10.9694 23.8571 11.4687 23.8571 12.458V19.0134H13.1318C12.5215 19.0134 12.0222 19.5127 12.0222 20.1229V26.0404C12.0222 26.6506 12.5215 27.1499 13.1318 27.1499Z" fill="#201E4A"/>
</svg>