<svg xmlns="http://www.w3.org/2000/svg" width="83" height="63" viewBox="0 0 83 63" fill="none">
  <path d="M81.3019 21.0832C81.9307 20.5851 82.8658 21.0511 82.8658 21.8384V54.6983C82.8658 58.9564 79.3994 62.4111 75.1269 62.4111H8.05657C3.78406 62.4111 0.317688 58.9564 0.317688 54.6983V21.8545C0.317688 21.0511 1.23668 20.6012 1.88159 21.0993C5.49307 23.8952 10.2815 27.4463 26.7266 39.353C30.1285 41.8275 35.8682 47.0337 41.5917 47.0015C47.3475 47.0497 53.2001 41.7311 56.473 39.353C72.9181 27.4463 77.6904 23.8791 81.3019 21.0832ZM41.5917 41.8436C45.3322 41.9079 50.7172 37.1516 53.4258 35.1913C74.8206 19.7174 76.449 18.3677 81.3825 14.5112C82.3176 13.7882 82.8658 12.6634 82.8658 11.4743V8.42132C82.8658 4.1632 79.3994 0.708496 75.1269 0.708496H8.05657C3.78406 0.708496 0.317688 4.1632 0.317688 8.42132V11.4743C0.317688 12.6634 0.865859 13.7721 1.80097 14.5112C6.73451 18.3516 8.36291 19.7174 29.7577 35.1913C32.4663 37.1516 37.8513 41.9079 41.5917 41.8436Z" fill="black"/>
</svg>