<svg xmlns="http://www.w3.org/2000/svg" width="52" height="45" viewBox="0 0 52 45" fill="none">
  <path d="M46.9983 22.2478H39.051V15.9346C39.051 12.4525 41.9021 9.62142 45.4089 9.62142H46.2036C47.5248 9.62142 48.5878 8.56593 48.5878 7.25396V2.51906C48.5878 1.2071 47.5248 0.151611 46.2036 0.151611H45.4089C36.627 0.151611 29.5142 7.21451 29.5142 15.9346V39.6091C29.5142 42.2232 31.65 44.344 34.2826 44.344H46.9983C49.6309 44.344 51.7667 42.2232 51.7667 39.6091V26.9827C51.7667 24.3687 49.6309 22.2478 46.9983 22.2478ZM18.3879 22.2478H10.4406V15.9346C10.4406 12.4525 13.2917 9.62142 16.7984 9.62142H17.5932C18.9144 9.62142 19.9774 8.56593 19.9774 7.25396V2.51906C19.9774 1.2071 18.9144 0.151611 17.5932 0.151611H16.7984C8.01662 0.151611 0.903748 7.21451 0.903748 15.9346V39.6091C0.903748 42.2232 3.0396 44.344 5.67215 44.344H18.3879C21.0205 44.344 23.1563 42.2232 23.1563 39.6091V26.9827C23.1563 24.3687 21.0205 22.2478 18.3879 22.2478Z" fill="#201E4A"/>
</svg>