<svg xmlns="http://www.w3.org/2000/svg" width="71" height="71" viewBox="0 0 71 71" fill="none">
  <path d="M68.399 50.033L53.0773 43.4665C52.4227 43.1876 51.6953 43.1288 51.0045 43.2991C50.3137 43.4693 49.6968 43.8594 49.2468 44.4105L42.4615 52.7006C31.8126 47.6797 23.2427 39.1098 18.2218 28.4609L26.5119 21.6755C27.0641 21.2264 27.455 20.6095 27.6253 19.9184C27.7956 19.2272 27.7361 18.4994 27.4558 17.8451L20.8894 2.52341C20.5818 1.81808 20.0376 1.2422 19.3509 0.895071C18.6641 0.547943 17.8777 0.451326 17.1274 0.621881L2.90009 3.9051C2.17664 4.07216 1.53118 4.4795 1.06906 5.06064C0.606928 5.64177 0.355424 6.36239 0.355591 7.10488C0.355591 42.1943 28.7965 70.5805 63.8312 70.5805C64.5739 70.581 65.2948 70.3296 65.8763 69.8674C66.4577 69.4053 66.8652 68.7597 67.0323 68.036L70.3155 53.8087C70.485 53.0547 70.3863 52.2652 70.0365 51.576C69.6867 50.8869 69.1076 50.3413 68.399 50.033Z" fill="black"/>
</svg>