<svg xmlns="http://www.w3.org/2000/svg" width="36" height="29" viewBox="0 0 36 29" fill="none">
  <path d="M32.2996 7.22732C32.3224 7.54449 32.3224 7.86173 32.3224 8.1789C32.3224 17.8531 24.8986 29 11.33 29C7.14975 29 3.26652 27.7992 0 25.7149C0.593932 25.7828 1.16494 25.8055 1.78173 25.8055C5.23092 25.8055 8.4061 24.65 10.9417 22.6789C7.69798 22.6109 4.97969 20.5039 4.04313 17.6039C4.50002 17.6718 4.95684 17.7172 5.43658 17.7172C6.099 17.7172 6.76149 17.6265 7.3782 17.468C3.99749 16.7882 1.46187 13.843 1.46187 10.2859V10.1953C2.44407 10.7391 3.5863 11.0789 4.79688 11.1242C2.80956 9.8101 1.50758 7.56716 1.50758 5.02964C1.50758 3.67029 1.87299 2.42419 2.51263 1.33668C6.14463 5.77731 11.6041 8.67726 17.7259 8.9945C17.6117 8.45075 17.5431 7.8844 17.5431 7.31798C17.5431 3.28512 20.8325 0 24.9213 0C27.0457 0 28.9644 0.883592 30.3122 2.31094C31.9797 1.99376 33.5786 1.38202 34.9949 0.543754C34.4467 2.24301 33.2817 3.67036 31.7513 4.57654C33.2361 4.41803 34.6752 4.01012 36 3.44377C34.9951 4.89372 33.7387 6.18507 32.2996 7.22732Z" fill="white"/>
</svg>